<?xml version="1.0" encoding="UTF-8"?>
<svg width="16px" height="16px" viewBox="0 0 16 16" version="1.1" xmlns="http://www.w3.org/2000/svg" xmlns:xlink="http://www.w3.org/1999/xlink">
    <!-- Generator: Sketch 46.2 (44496) - http://www.bohemiancoding.com/sketch -->
    <title>close</title>
    <desc>Created with Sketch.</desc>
    <defs></defs>
    <g id="Edit" stroke="none" stroke-width="1" fill="none" fill-rule="evenodd">
        <g id="001--Edit-name-hover" transform="translate(-30.000000, -28.000000)" fill="#090B17">
            <g id="Group" transform="translate(30.000000, 23.000000)">
                <path d="M8,11.4636382 L1.85455276,5.31819095 C1.43029816,4.89393635 0.742445548,4.89393635 0.318190949,5.31819095 L0.318190949,5.31819095 L0.318190949,5.31819095 C-0.10606365,5.74244555 -0.10606365,6.43029816 0.318190949,6.85455276 L0.318190949,6.85455276 L6.46363819,13 L0.318190949,19.1454472 C-0.10606365,19.5697018 -0.10606365,20.2575545 0.318190949,20.6818091 C0.742445548,21.1060636 1.43029816,21.1060636 1.85455276,20.6818091 L8,14.5363618 L14.1454472,20.6818091 C14.5697018,21.1060636 15.2575545,21.1060636 15.6818091,20.6818091 C16.1060636,20.2575545 16.1060636,19.5697018 15.6818091,19.1454472 L9.53636181,13 L15.6818091,6.85455276 C16.1060636,6.43029816 16.1060636,5.74244555 15.6818091,5.31819095 L15.6818091,5.31819095 L15.6818091,5.31819095 C15.2575545,4.89393635 14.5697018,4.89393635 14.1454472,5.31819095 L14.1454472,5.31819095 L8,11.4636382 Z" id="close" transform="translate(8.000000, 13.000000) rotate(-90.000000) translate(-8.000000, -13.000000) "></path>
            </g>
        </g>
    </g>
</svg>