<svg width="2773" height="1440" viewBox="0 0 2773 1440" fill="none" xmlns="http://www.w3.org/2000/svg">
<g clip-path="url(#clip0_3474_1217)">
<path d="M863.812 -164.744H-4V694.012H863.812V-164.744Z" stroke="#E4E4E7" stroke-opacity="0.5" stroke-width="32.6577"/>
<path d="M805.959 -107.493H53.8545V636.762H805.959V-107.493Z" stroke="#E4E4E7" stroke-opacity="0.5" stroke-width="32.6577"/>
<path d="M748.104 -50.243H111.708V579.511H748.104V-50.243Z" stroke="#E4E4E7" stroke-opacity="0.5" stroke-width="32.6577"/>
<path d="M690.25 7.00732H169.562V522.261H690.25V7.00732Z" stroke="#E4E4E7" stroke-opacity="0.5" stroke-width="32.6577"/>
<path d="M632.396 64.2577H227.417V465.01H632.396V64.2577Z" stroke="#E4E4E7" stroke-opacity="0.5" stroke-width="32.6577"/>
<path d="M574.541 121.508H285.271V407.76H574.541V121.508Z" stroke="#E4E4E7" stroke-opacity="0.5" stroke-width="32.6577"/>
<path d="M516.687 178.758H343.125V350.51H516.687V178.758Z" stroke="#E4E4E7" stroke-opacity="0.5" stroke-width="32.6577"/>
<path d="M458.833 236.01H400.979V293.26H458.833V236.01Z" stroke="#E4E4E7" stroke-opacity="0.5" stroke-width="32.6577"/>
<path d="M1789.48 -622.747H921.667V236.009H1789.48V-622.747Z" stroke="#E4E4E7" stroke-opacity="0.5" stroke-width="32.6577"/>
<path d="M1731.62 -565.497H979.521V178.759H1731.62V-565.497Z" stroke="#E4E4E7" stroke-opacity="0.5" stroke-width="32.6577"/>
<path d="M1673.77 -508.247H1037.38V121.507H1673.77V-508.247Z" stroke="#E4E4E7" stroke-opacity="0.5" stroke-width="32.6577"/>
<path d="M1615.92 -450.996H1095.23V64.2578H1615.92V-450.996Z" stroke="#E4E4E7" stroke-opacity="0.5" stroke-width="32.6577"/>
<path d="M1558.06 -393.745H1153.08V7.00732H1558.06V-393.745Z" stroke="#E4E4E7" stroke-opacity="0.5" stroke-width="32.6577"/>
<path d="M1326.65 293.259H921.667V694.012H1326.65V293.259Z" stroke="#E4E4E7" stroke-opacity="0.5" stroke-width="32.6577"/>
<path d="M1268.79 350.51H979.521V636.762H1268.79V350.51Z" stroke="#E4E4E7" stroke-opacity="0.5" stroke-width="32.6577"/>
<path d="M1210.94 407.761H1037.38V579.512H1210.94V407.761Z" stroke="#E4E4E7" stroke-opacity="0.5" stroke-width="32.6577"/>
<path d="M1153.08 465.011H1095.23V522.262H1153.08V465.011Z" stroke="#E4E4E7" stroke-opacity="0.5" stroke-width="32.6577"/>
<path d="M2252.31 -164.744H1847.33V236.009H2252.31V-164.744Z" stroke="#E4E4E7" stroke-opacity="0.5" stroke-width="32.6577"/>
<path d="M2194.46 -107.493H1905.19V178.759H2194.46V-107.493Z" stroke="#E4E4E7" stroke-opacity="0.5" stroke-width="32.6577"/>
<path d="M2136.6 -50.243H1963.04V121.508H2136.6V-50.243Z" stroke="#E4E4E7" stroke-opacity="0.5" stroke-width="32.6577"/>
<path d="M2078.75 7.00732H2020.9V64.2577H2078.75V7.00732Z" stroke="#E4E4E7" stroke-opacity="0.5" stroke-width="32.6577"/>
<path d="M1326.65 751.263H458.833V1610.02H1326.65V751.263Z" stroke="#E4E4E7" stroke-opacity="0.5" stroke-width="32.6577"/>
<path d="M1268.79 808.513H516.687V1552.77H1268.79V808.513Z" stroke="#E4E4E7" stroke-opacity="0.5" stroke-width="32.6577"/>
<path d="M1210.94 865.763H574.542V1495.52H1210.94V865.763Z" stroke="#E4E4E7" stroke-opacity="0.5" stroke-width="32.6577"/>
<path d="M1153.08 923.014H632.396V1438.27H1153.08V923.014Z" stroke="#E4E4E7" stroke-opacity="0.5" stroke-width="32.6577"/>
<path d="M1095.23 980.265H690.25V1381.02H1095.23V980.265Z" stroke="#E4E4E7" stroke-opacity="0.5" stroke-width="32.6577"/>
<path d="M1037.37 1037.51H748.104V1323.77H1037.37V1037.51Z" stroke="#E4E4E7" stroke-opacity="0.5" stroke-width="32.6577"/>
<path d="M979.521 1094.77H805.958V1266.52H979.521V1094.77Z" stroke="#E4E4E7" stroke-opacity="0.5" stroke-width="32.6577"/>
<path d="M921.666 1152.02H863.812V1209.27H921.666V1152.02Z" stroke="#E4E4E7" stroke-opacity="0.5" stroke-width="32.6577"/>
<path d="M3640.81 751.263H2773V1610.02H3640.81V751.263Z" stroke="#E4E4E7" stroke-opacity="0.5" stroke-width="32.6577"/>
<path d="M2252.31 293.259H1384.5V1152.02H2252.31V293.259Z" stroke="#E4E4E7" stroke-opacity="0.5" stroke-width="32.6577"/>
<path d="M2194.46 350.51H1442.35V1094.76H2194.46V350.51Z" stroke="#E4E4E7" stroke-opacity="0.5" stroke-width="32.6577"/>
<path d="M2136.6 407.761H1500.21V1037.52H2136.6V407.761Z" stroke="#E4E4E7" stroke-opacity="0.5" stroke-width="32.6577"/>
<path d="M2078.75 465.011H1558.06V980.265H2078.75V465.011Z" stroke="#E4E4E7" stroke-opacity="0.5" stroke-width="32.6577"/>
<path d="M2020.9 522.261H1615.92V923.013H2020.9V522.261Z" stroke="#E4E4E7" stroke-opacity="0.5" stroke-width="32.6577"/>
<path d="M1963.04 579.512H1673.77V865.764H1963.04V579.512Z" stroke="#E4E4E7" stroke-opacity="0.5" stroke-width="32.6577"/>
<path d="M1905.19 636.762H1731.62V808.513H1905.19V636.762Z" stroke="#E4E4E7" stroke-opacity="0.5" stroke-width="32.6577"/>
<path d="M1847.33 694.012H1789.48V751.262H1847.33V694.012Z" stroke="#E4E4E7" stroke-opacity="0.5" stroke-width="32.6577"/>
<path d="M1789.48 1209.27H1384.5V1610.02H1789.48V1209.27Z" stroke="#E4E4E7" stroke-opacity="0.5" stroke-width="32.6577"/>
<path d="M1731.63 1266.52H1442.35V1552.77H1731.63V1266.52Z" stroke="#E4E4E7" stroke-opacity="0.5" stroke-width="32.6577"/>
<path d="M1673.77 1323.77H1500.21V1495.52H1673.77V1323.77Z" stroke="#E4E4E7" stroke-opacity="0.5" stroke-width="32.6577"/>
<path d="M1615.92 1381.02H1558.06V1438.27H1615.92V1381.02Z" stroke="#E4E4E7" stroke-opacity="0.5" stroke-width="32.6577"/>
<path d="M2715.15 1209.27H1847.33V2068.02H2715.15V1209.27Z" stroke="#E4E4E7" stroke-opacity="0.5" stroke-width="32.6577"/>
<path d="M2657.29 1266.52H1905.19V2010.77H2657.29V1266.52Z" stroke="#E4E4E7" stroke-opacity="0.5" stroke-width="32.6577"/>
<path d="M2599.44 1323.77H1963.04V1953.52H2599.44V1323.77Z" stroke="#E4E4E7" stroke-opacity="0.5" stroke-width="32.6577"/>
<path d="M2541.58 1381.02H2020.9V1896.27H2541.58V1381.02Z" stroke="#E4E4E7" stroke-opacity="0.5" stroke-width="32.6577"/>
<path d="M2483.73 1438.27H2078.75V1839.02H2483.73V1438.27Z" stroke="#E4E4E7" stroke-opacity="0.5" stroke-width="32.6577"/>
<path d="M3177.98 -164.744H2310.17V694.012H3177.98V-164.744Z" stroke="#E4E4E7" stroke-opacity="0.5" stroke-width="32.6577"/>
<path d="M3120.13 -107.493H2368.02V636.762H3120.13V-107.493Z" stroke="#E4E4E7" stroke-opacity="0.5" stroke-width="32.6577"/>
<path d="M3062.27 -50.243H2425.88V579.511H3062.27V-50.243Z" stroke="#E4E4E7" stroke-opacity="0.5" stroke-width="32.6577"/>
<path d="M3004.42 7.00732H2483.73V522.261H3004.42V7.00732Z" stroke="#E4E4E7" stroke-opacity="0.5" stroke-width="32.6577"/>
<path d="M2946.56 64.2577H2541.58V465.01H2946.56V64.2577Z" stroke="#E4E4E7" stroke-opacity="0.5" stroke-width="32.6577"/>
<path d="M2888.71 121.508H2599.44V407.76H2888.71V121.508Z" stroke="#E4E4E7" stroke-opacity="0.5" stroke-width="32.6577"/>
<path d="M2830.85 178.758H2657.29V350.51H2830.85V178.758Z" stroke="#E4E4E7" stroke-opacity="0.5" stroke-width="32.6577"/>
<path d="M2773 236.01H2715.15V293.26H2773V236.01Z" stroke="#E4E4E7" stroke-opacity="0.5" stroke-width="32.6577"/>
<path d="M2715.15 751.263H2310.17V1152.02H2715.15V751.263Z" stroke="#E4E4E7" stroke-opacity="0.5" stroke-width="32.6577"/>
<path d="M2657.29 808.513H2368.02V1094.77H2657.29V808.513Z" stroke="#E4E4E7" stroke-opacity="0.5" stroke-width="32.6577"/>
<path d="M2599.44 865.763H2425.88V1037.51H2599.44V865.763Z" stroke="#E4E4E7" stroke-opacity="0.5" stroke-width="32.6577"/>
<path d="M2541.58 923.014H2483.73V980.264H2541.58V923.014Z" stroke="#E4E4E7" stroke-opacity="0.5" stroke-width="32.6577"/>
<rect width="2776.87" height="1444.51" transform="translate(-4)" fill="url(#paint0_linear_3474_1217)"/>
</g>
<defs>
<linearGradient id="paint0_linear_3474_1217" x1="1592.07" y1="1172.09" x2="2764.09" y2="-12.6423" gradientUnits="userSpaceOnUse">
<stop stop-color="white"/>
<stop offset="0.513001" stop-color="white" stop-opacity="0"/>
</linearGradient>
<clipPath id="clip0_3474_1217">
<rect width="2777" height="1445" fill="white" transform="translate(-4)"/>
</clipPath>
</defs>
</svg>
