<svg width="2774" height="1439" viewBox="0 0 2774 1439" fill="none" xmlns="http://www.w3.org/2000/svg">
<g clip-path="url(#clip0_3474_1097)">
<path d="M854.757 -167.992H-4.00003V690.765H854.757V-167.992Z" stroke="#09090B" stroke-opacity="0.5" stroke-width="28.6252"/>
<path d="M797.507 -110.742H53.2508V633.514H797.507V-110.742Z" stroke="#09090B" stroke-opacity="0.5" stroke-width="28.6252"/>
<path d="M740.256 -53.491H110.501V576.264H740.256V-53.491Z" stroke="#09090B" stroke-opacity="0.5" stroke-width="28.6252"/>
<path d="M683.005 3.75854H167.751V519.013H683.005V3.75854Z" stroke="#09090B" stroke-opacity="0.5" stroke-width="28.6252"/>
<path d="M625.755 61.0098H225.002V461.763H625.755V61.0098Z" stroke="#09090B" stroke-opacity="0.5" stroke-width="28.6252"/>
<path d="M568.504 118.259H282.252V404.512H568.504V118.259Z" stroke="#09090B" stroke-opacity="0.5" stroke-width="28.6252"/>
<path d="M511.254 175.511H339.503V347.262H511.254V175.511Z" stroke="#09090B" stroke-opacity="0.5" stroke-width="28.6252"/>
<path d="M454.003 232.762H396.753V290.013H454.003V232.762Z" stroke="#09090B" stroke-opacity="0.5" stroke-width="28.6252"/>
<path d="M1770.76 -625.997H912.007V232.76H1770.76V-625.997Z" stroke="#09090B" stroke-opacity="0.5" stroke-width="28.6252"/>
<path d="M1713.51 -568.745H969.257V175.51H1713.51V-568.745Z" stroke="#09090B" stroke-opacity="0.5" stroke-width="28.6252"/>
<path d="M1656.26 -511.496H1026.51V118.259H1656.26V-511.496Z" stroke="#09090B" stroke-opacity="0.5" stroke-width="28.6252"/>
<path d="M1599.01 -454.245H1083.76V61.0093H1599.01V-454.245Z" stroke="#09090B" stroke-opacity="0.5" stroke-width="28.6252"/>
<path d="M1541.76 -396.995H1141.01V3.75803H1541.76V-396.995Z" stroke="#09090B" stroke-opacity="0.5" stroke-width="28.6252"/>
<path d="M1312.76 290.012H912.007V690.765H1312.76V290.012Z" stroke="#09090B" stroke-opacity="0.5" stroke-width="28.6252"/>
<path d="M1255.51 347.261H969.257V633.514H1255.51V347.261Z" stroke="#09090B" stroke-opacity="0.5" stroke-width="28.6252"/>
<path d="M1198.26 404.513H1026.51V576.264H1198.26V404.513Z" stroke="#09090B" stroke-opacity="0.5" stroke-width="28.6252"/>
<path d="M1141.01 461.764H1083.76V519.014H1141.01V461.764Z" stroke="#09090B" stroke-opacity="0.5" stroke-width="28.6252"/>
<path d="M2228.77 -167.992H1828.01V232.761H2228.77V-167.992Z" stroke="#09090B" stroke-opacity="0.5" stroke-width="28.6252"/>
<path d="M2171.52 -110.742H1885.26V175.51H2171.52V-110.742Z" stroke="#09090B" stroke-opacity="0.5" stroke-width="28.6252"/>
<path d="M2114.27 -53.491H1942.52V118.26H2114.27V-53.491Z" stroke="#09090B" stroke-opacity="0.5" stroke-width="28.6252"/>
<path d="M2057.02 3.75854H1999.77V61.009H2057.02V3.75854Z" stroke="#09090B" stroke-opacity="0.5" stroke-width="28.6252"/>
<path d="M1312.76 748.015H454.003V1606.77H1312.76V748.015Z" stroke="#09090B" stroke-opacity="0.5" stroke-width="28.6252"/>
<path d="M1255.51 805.266H511.254V1549.52H1255.51V805.266Z" stroke="#09090B" stroke-opacity="0.5" stroke-width="28.6252"/>
<path d="M1198.26 862.516H568.505V1492.27H1198.26V862.516Z" stroke="#09090B" stroke-opacity="0.5" stroke-width="28.6252"/>
<path d="M1141.01 919.767H625.755V1435.02H1141.01V919.767Z" stroke="#09090B" stroke-opacity="0.5" stroke-width="28.6252"/>
<path d="M1083.76 977.017H683.005V1377.77H1083.76V977.017Z" stroke="#09090B" stroke-opacity="0.5" stroke-width="28.6252"/>
<path d="M1026.51 1034.27H740.256V1320.52H1026.51V1034.27Z" stroke="#09090B" stroke-opacity="0.5" stroke-width="28.6252"/>
<path d="M969.258 1091.52H797.506V1263.27H969.258V1091.52Z" stroke="#09090B" stroke-opacity="0.5" stroke-width="28.6252"/>
<path d="M912.007 1148.77H854.757V1206.02H912.007V1148.77Z" stroke="#09090B" stroke-opacity="0.5" stroke-width="28.6252"/>
<path d="M3602.78 748.015H2744.02V1606.77H3602.78V748.015Z" stroke="#09090B" stroke-opacity="0.5" stroke-width="28.6252"/>
<path d="M2228.77 290.012H1370.01V1148.77H2228.77V290.012Z" stroke="#09090B" stroke-opacity="0.5" stroke-width="28.6252"/>
<path d="M2171.52 347.261H1427.26V1091.52H2171.52V347.261Z" stroke="#09090B" stroke-opacity="0.5" stroke-width="28.6252"/>
<path d="M2114.27 404.513H1484.51V1034.27H2114.27V404.513Z" stroke="#09090B" stroke-opacity="0.5" stroke-width="28.6252"/>
<path d="M2057.02 461.764H1541.76V977.018H2057.02V461.764Z" stroke="#09090B" stroke-opacity="0.5" stroke-width="28.6252"/>
<path d="M1999.77 519.013H1599.01V919.766H1999.77V519.013Z" stroke="#09090B" stroke-opacity="0.5" stroke-width="28.6252"/>
<path d="M1942.52 576.265H1656.26V862.517H1942.52V576.265Z" stroke="#09090B" stroke-opacity="0.5" stroke-width="28.6252"/>
<path d="M1885.27 633.514H1713.51V805.266H1885.27V633.514Z" stroke="#09090B" stroke-opacity="0.5" stroke-width="28.6252"/>
<path d="M1828.01 690.764H1770.76V748.014H1828.01V690.764Z" stroke="#09090B" stroke-opacity="0.5" stroke-width="28.6252"/>
<path d="M1770.76 1206.02H1370.01V1606.77H1770.76V1206.02Z" stroke="#09090B" stroke-opacity="0.5" stroke-width="28.6252"/>
<path d="M1713.51 1263.27H1427.26V1549.52H1713.51V1263.27Z" stroke="#09090B" stroke-opacity="0.5" stroke-width="28.6252"/>
<path d="M1656.26 1320.52H1484.51V1492.27H1656.26V1320.52Z" stroke="#09090B" stroke-opacity="0.5" stroke-width="28.6252"/>
<path d="M1599.01 1377.77H1541.76V1435.02H1599.01V1377.77Z" stroke="#09090B" stroke-opacity="0.5" stroke-width="28.6252"/>
<path d="M2686.77 1206.02H1828.01V2064.77H2686.77V1206.02Z" stroke="#09090B" stroke-opacity="0.5" stroke-width="28.6252"/>
<path d="M2629.52 1263.27H1885.26V2007.53H2629.52V1263.27Z" stroke="#09090B" stroke-opacity="0.5" stroke-width="28.6252"/>
<path d="M2572.27 1320.52H1942.52V1950.27H2572.27V1320.52Z" stroke="#09090B" stroke-opacity="0.5" stroke-width="28.6252"/>
<path d="M2515.02 1377.77H1999.77V1893.02H2515.02V1377.77Z" stroke="#09090B" stroke-opacity="0.5" stroke-width="28.6252"/>
<path d="M2457.77 1435.02H2057.02V1835.77H2457.77V1435.02Z" stroke="#09090B" stroke-opacity="0.5" stroke-width="28.6252"/>
<path d="M3144.77 -167.992H2286.02V690.765H3144.77V-167.992Z" stroke="#09090B" stroke-opacity="0.5" stroke-width="28.6252"/>
<path d="M3087.52 -110.742H2343.27V633.514H3087.52V-110.742Z" stroke="#09090B" stroke-opacity="0.5" stroke-width="28.6252"/>
<path d="M3030.27 -53.491H2400.52V576.264H3030.27V-53.491Z" stroke="#09090B" stroke-opacity="0.5" stroke-width="28.6252"/>
<path d="M2973.02 3.75854H2457.77V519.013H2973.02V3.75854Z" stroke="#09090B" stroke-opacity="0.5" stroke-width="28.6252"/>
<path d="M2915.77 61.0098H2515.02V461.763H2915.77V61.0098Z" stroke="#09090B" stroke-opacity="0.5" stroke-width="28.6252"/>
<path d="M2858.52 118.259H2572.27V404.512H2858.52V118.259Z" stroke="#09090B" stroke-opacity="0.5" stroke-width="28.6252"/>
<path d="M2801.27 175.511H2629.52V347.262H2801.27V175.511Z" stroke="#09090B" stroke-opacity="0.5" stroke-width="28.6252"/>
<path d="M2744.02 232.762H2686.77V290.013H2744.02V232.762Z" stroke="#09090B" stroke-opacity="0.5" stroke-width="28.6252"/>
<path d="M2686.77 748.015H2286.02V1148.77H2686.77V748.015Z" stroke="#09090B" stroke-opacity="0.5" stroke-width="28.6252"/>
<path d="M2629.52 805.266H2343.27V1091.52H2629.52V805.266Z" stroke="#09090B" stroke-opacity="0.5" stroke-width="28.6252"/>
<path d="M2572.27 862.516H2400.52V1034.27H2572.27V862.516Z" stroke="#09090B" stroke-opacity="0.5" stroke-width="28.6252"/>
<path d="M2515.02 919.767H2457.77V977.018H2515.02V919.767Z" stroke="#09090B" stroke-opacity="0.5" stroke-width="28.6252"/>
<rect width="2777" height="1451" transform="translate(-4.00024 -0.000732422)" fill="url(#paint0_linear_3474_1097)"/>
</g>
<defs>
<linearGradient id="paint0_linear_3474_1097" x1="1592.15" y1="1177.36" x2="2769.48" y2="-7.4728" gradientUnits="userSpaceOnUse">
<stop stop-color="#18181B"/>
<stop offset="0.513001" stop-color="#18181B" stop-opacity="0"/>
</linearGradient>
<clipPath id="clip0_3474_1097">
<rect width="2776.72" height="1438.08" fill="white" transform="translate(-3.65552 0.462158)"/>
</clipPath>
</defs>
</svg>
